<svg id="visual" viewBox="0 0 960 300" width="960" height="300" xmlns="http://www.w3.org/2000/svg" xmlns:xlink="http://www.w3.org/1999/xlink" version="1.1"><rect x="0" y="0" width="960" height="300" fill="#1a1a1a"></rect><path d="M0 162L13.3 160C26.7 158 53.3 154 80 152.3C106.7 150.7 133.3 151.3 160 146.7C186.7 142 213.3 132 240 135.5C266.7 139 293.3 156 320 165.5C346.7 175 373.3 177 400 173.5C426.7 170 453.3 161 480 154.8C506.7 148.7 533.3 145.3 560 139.8C586.7 134.3 613.3 126.7 640 125.8C666.7 125 693.3 131 720 136.5C746.7 142 773.3 147 800 144.3C826.7 141.7 853.3 131.3 880 137C906.7 142.7 933.3 164.3 946.7 175.2L960 186L960 0L946.7 0C933.3 0 906.7 0 880 0C853.3 0 826.7 0 800 0C773.3 0 746.7 0 720 0C693.3 0 666.7 0 640 0C613.3 0 586.7 0 560 0C533.3 0 506.7 0 480 0C453.3 0 426.7 0 400 0C373.3 0 346.7 0 320 0C293.3 0 266.7 0 240 0C213.3 0 186.7 0 160 0C133.3 0 106.7 0 80 0C53.3 0 26.7 0 13.3 0L0 0Z" fill="#77aaff"></path><path d="M0 158L13.3 155.5C26.7 153 53.3 148 80 138.2C106.7 128.3 133.3 113.7 160 108C186.7 102.3 213.3 105.7 240 109.8C266.7 114 293.3 119 320 123.8C346.7 128.7 373.3 133.3 400 137.8C426.7 142.3 453.3 146.7 480 143.7C506.7 140.7 533.3 130.3 560 125.3C586.7 120.3 613.3 120.7 640 122.5C666.7 124.3 693.3 127.7 720 125.7C746.7 123.7 773.3 116.3 800 115.8C826.7 115.3 853.3 121.7 880 127.8C906.7 134 933.3 140 946.7 143L960 146L960 0L946.7 0C933.3 0 906.7 0 880 0C853.3 0 826.7 0 800 0C773.3 0 746.7 0 720 0C693.3 0 666.7 0 640 0C613.3 0 586.7 0 560 0C533.3 0 506.7 0 480 0C453.3 0 426.7 0 400 0C373.3 0 346.7 0 320 0C293.3 0 266.7 0 240 0C213.3 0 186.7 0 160 0C133.3 0 106.7 0 80 0C53.3 0 26.7 0 13.3 0L0 0Z" fill="#5393ff"></path><path d="M0 130L13.3 127.3C26.7 124.7 53.3 119.3 80 111.3C106.7 103.3 133.3 92.7 160 88.3C186.7 84 213.3 86 240 87.5C266.7 89 293.3 90 320 94.5C346.7 99 373.3 107 400 107.2C426.7 107.3 453.3 99.7 480 102.2C506.7 104.7 533.3 117.3 560 121.2C586.7 125 613.3 120 640 111.7C666.7 103.3 693.3 91.7 720 94.3C746.7 97 773.3 114 800 118.7C826.7 123.3 853.3 115.7 880 115C906.7 114.3 933.3 120.7 946.7 123.8L960 127L960 0L946.7 0C933.3 0 906.7 0 880 0C853.3 0 826.7 0 800 0C773.3 0 746.7 0 720 0C693.3 0 666.7 0 640 0C613.3 0 586.7 0 560 0C533.3 0 506.7 0 480 0C453.3 0 426.7 0 400 0C373.3 0 346.7 0 320 0C293.3 0 266.7 0 240 0C213.3 0 186.7 0 160 0C133.3 0 106.7 0 80 0C53.3 0 26.7 0 13.3 0L0 0Z" fill="#287bff"></path><path d="M0 83L13.3 84.2C26.7 85.3 53.3 87.7 80 87.7C106.7 87.7 133.3 85.3 160 86.2C186.7 87 213.3 91 240 88.7C266.7 86.3 293.3 77.7 320 77.8C346.7 78 373.3 87 400 88C426.7 89 453.3 82 480 76.2C506.7 70.3 533.3 65.7 560 65.7C586.7 65.7 613.3 70.3 640 74C666.7 77.7 693.3 80.3 720 78.2C746.7 76 773.3 69 800 69.8C826.7 70.7 853.3 79.3 880 85.3C906.7 91.3 933.3 94.7 946.7 96.3L960 98L960 0L946.7 0C933.3 0 906.7 0 880 0C853.3 0 826.7 0 800 0C773.3 0 746.7 0 720 0C693.3 0 666.7 0 640 0C613.3 0 586.7 0 560 0C533.3 0 506.7 0 480 0C453.3 0 426.7 0 400 0C373.3 0 346.7 0 320 0C293.3 0 266.7 0 240 0C213.3 0 186.7 0 160 0C133.3 0 106.7 0 80 0C53.3 0 26.7 0 13.3 0L0 0Z" fill="#0061ff"></path><path d="M0 69L13.3 67.3C26.7 65.7 53.3 62.3 80 62C106.7 61.7 133.3 64.3 160 64.5C186.7 64.7 213.3 62.3 240 62.2C266.7 62 293.3 64 320 60.8C346.7 57.7 373.3 49.3 400 48.3C426.7 47.3 453.3 53.7 480 59.2C506.7 64.7 533.3 69.3 560 70.3C586.7 71.3 613.3 68.7 640 64.3C666.7 60 693.3 54 720 50.7C746.7 47.3 773.3 46.7 800 50.7C826.7 54.7 853.3 63.3 880 68C906.7 72.7 933.3 73.3 946.7 73.7L960 74L960 0L946.7 0C933.3 0 906.7 0 880 0C853.3 0 826.7 0 800 0C773.3 0 746.7 0 720 0C693.3 0 666.7 0 640 0C613.3 0 586.7 0 560 0C533.3 0 506.7 0 480 0C453.3 0 426.7 0 400 0C373.3 0 346.7 0 320 0C293.3 0 266.7 0 240 0C213.3 0 186.7 0 160 0C133.3 0 106.7 0 80 0C53.3 0 26.7 0 13.3 0L0 0Z" fill="#0042ff"></path><path d="M0 20L13.3 23.7C26.7 27.3 53.3 34.7 80 36.5C106.7 38.3 133.3 34.7 160 31C186.7 27.3 213.3 23.7 240 25.8C266.7 28 293.3 36 320 37.5C346.7 39 373.3 34 400 30.5C426.7 27 453.3 25 480 27.2C506.7 29.3 533.3 35.7 560 38.7C586.7 41.7 613.3 41.3 640 39C666.7 36.7 693.3 32.3 720 31.2C746.7 30 773.3 32 800 32.2C826.7 32.3 853.3 30.7 880 29.3C906.7 28 933.3 27 946.7 26.5L960 26L960 0L946.7 0C933.3 0 906.7 0 880 0C853.3 0 826.7 0 800 0C773.3 0 746.7 0 720 0C693.3 0 666.7 0 640 0C613.3 0 586.7 0 560 0C533.3 0 506.7 0 480 0C453.3 0 426.7 0 400 0C373.3 0 346.7 0 320 0C293.3 0 266.7 0 240 0C213.3 0 186.7 0 160 0C133.3 0 106.7 0 80 0C53.3 0 26.7 0 13.3 0L0 0Z" fill="#0000ff"></path></svg>