<svg id="visual" viewBox="0 0 960 300" width="960" height="300" xmlns="http://www.w3.org/2000/svg" xmlns:xlink="http://www.w3.org/1999/xlink" version="1.1"><rect x="0" y="0" width="960" height="300" fill="#1a1a1a"></rect><path d="M0 170L11.5 168.2C23 166.3 46 162.7 68.8 163.5C91.7 164.3 114.3 169.7 137.2 170.2C160 170.7 183 166.3 205.8 161.5C228.7 156.7 251.3 151.3 274.2 153.7C297 156 320 166 342.8 167C365.7 168 388.3 160 411.2 152.2C434 144.3 457 136.7 480 133.8C503 131 526 133 548.8 138C571.7 143 594.3 151 617.2 153.8C640 156.7 663 154.3 685.8 152.7C708.7 151 731.3 150 754.2 144.7C777 139.3 800 129.7 822.8 124.5C845.7 119.3 868.3 118.7 891.2 123C914 127.3 937 136.7 948.5 141.3L960 146L960 301L948.5 301C937 301 914 301 891.2 301C868.3 301 845.7 301 822.8 301C800 301 777 301 754.2 301C731.3 301 708.7 301 685.8 301C663 301 640 301 617.2 301C594.3 301 571.7 301 548.8 301C526 301 503 301 480 301C457 301 434 301 411.2 301C388.3 301 365.7 301 342.8 301C320 301 297 301 274.2 301C251.3 301 228.7 301 205.8 301C183 301 160 301 137.2 301C114.3 301 91.7 301 68.8 301C46 301 23 301 11.5 301L0 301Z" fill="#77aaff"></path><path d="M0 143L11.5 146.3C23 149.7 46 156.3 68.8 165.3C91.7 174.3 114.3 185.7 137.2 186.5C160 187.3 183 177.7 205.8 177.3C228.7 177 251.3 186 274.2 187.5C297 189 320 183 342.8 180.7C365.7 178.3 388.3 179.7 411.2 178C434 176.3 457 171.7 480 166.3C503 161 526 155 548.8 159.7C571.7 164.3 594.3 179.7 617.2 186.8C640 194 663 193 685.8 186C708.7 179 731.3 166 754.2 165.7C777 165.3 800 177.7 822.8 178.8C845.7 180 868.3 170 891.2 165C914 160 937 160 948.5 160L960 160L960 301L948.5 301C937 301 914 301 891.2 301C868.3 301 845.7 301 822.8 301C800 301 777 301 754.2 301C731.3 301 708.7 301 685.8 301C663 301 640 301 617.2 301C594.3 301 571.7 301 548.8 301C526 301 503 301 480 301C457 301 434 301 411.2 301C388.3 301 365.7 301 342.8 301C320 301 297 301 274.2 301C251.3 301 228.7 301 205.8 301C183 301 160 301 137.2 301C114.3 301 91.7 301 68.8 301C46 301 23 301 11.5 301L0 301Z" fill="#5393ff"></path><path d="M0 180L11.5 178.5C23 177 46 174 68.8 172.5C91.7 171 114.3 171 137.2 172.8C160 174.7 183 178.3 205.8 179.5C228.7 180.7 251.3 179.3 274.2 181.3C297 183.3 320 188.7 342.8 187.8C365.7 187 388.3 180 411.2 176.2C434 172.3 457 171.7 480 171C503 170.3 526 169.7 548.8 176.8C571.7 184 594.3 199 617.2 199.7C640 200.3 663 186.7 685.8 179.5C708.7 172.3 731.3 171.7 754.2 174C777 176.3 800 181.7 822.8 181.2C845.7 180.7 868.3 174.3 891.2 179.7C914 185 937 202 948.5 210.5L960 219L960 301L948.5 301C937 301 914 301 891.2 301C868.3 301 845.7 301 822.8 301C800 301 777 301 754.2 301C731.3 301 708.7 301 685.8 301C663 301 640 301 617.2 301C594.3 301 571.7 301 548.8 301C526 301 503 301 480 301C457 301 434 301 411.2 301C388.3 301 365.7 301 342.8 301C320 301 297 301 274.2 301C251.3 301 228.7 301 205.8 301C183 301 160 301 137.2 301C114.3 301 91.7 301 68.8 301C46 301 23 301 11.5 301L0 301Z" fill="#287bff"></path><path d="M0 237L11.5 237C23 237 46 237 68.8 232.5C91.7 228 114.3 219 137.2 216.3C160 213.7 183 217.3 205.8 218.3C228.7 219.3 251.3 217.7 274.2 219.5C297 221.3 320 226.7 342.8 227.5C365.7 228.3 388.3 224.7 411.2 225.2C434 225.7 457 230.3 480 229.8C503 229.3 526 223.7 548.8 219.5C571.7 215.3 594.3 212.7 617.2 213.2C640 213.7 663 217.3 685.8 218.3C708.7 219.3 731.3 217.7 754.2 215.3C777 213 800 210 822.8 213.5C845.7 217 868.3 227 891.2 225.2C914 223.3 937 209.7 948.5 202.8L960 196L960 301L948.5 301C937 301 914 301 891.2 301C868.3 301 845.7 301 822.8 301C800 301 777 301 754.2 301C731.3 301 708.7 301 685.8 301C663 301 640 301 617.2 301C594.3 301 571.7 301 548.8 301C526 301 503 301 480 301C457 301 434 301 411.2 301C388.3 301 365.7 301 342.8 301C320 301 297 301 274.2 301C251.3 301 228.7 301 205.8 301C183 301 160 301 137.2 301C114.3 301 91.7 301 68.8 301C46 301 23 301 11.5 301L0 301Z" fill="#0061ff"></path><path d="M0 239L11.5 237.3C23 235.7 46 232.3 68.8 230.8C91.7 229.3 114.3 229.7 137.2 232.3C160 235 183 240 205.8 244.7C228.7 249.3 251.3 253.7 274.2 253.8C297 254 320 250 342.8 246.2C365.7 242.3 388.3 238.7 411.2 240C434 241.3 457 247.7 480 246.5C503 245.3 526 236.7 548.8 231.5C571.7 226.3 594.3 224.7 617.2 224C640 223.3 663 223.7 685.8 228.3C708.7 233 731.3 242 754.2 245.7C777 249.3 800 247.7 822.8 243.2C845.7 238.7 868.3 231.3 891.2 231.3C914 231.3 937 238.7 948.5 242.3L960 246L960 301L948.5 301C937 301 914 301 891.2 301C868.3 301 845.7 301 822.8 301C800 301 777 301 754.2 301C731.3 301 708.7 301 685.8 301C663 301 640 301 617.2 301C594.3 301 571.7 301 548.8 301C526 301 503 301 480 301C457 301 434 301 411.2 301C388.3 301 365.7 301 342.8 301C320 301 297 301 274.2 301C251.3 301 228.7 301 205.8 301C183 301 160 301 137.2 301C114.3 301 91.7 301 68.8 301C46 301 23 301 11.5 301L0 301Z" fill="#0042ff"></path><path d="M0 256L11.5 258.2C23 260.3 46 264.7 68.8 264C91.7 263.3 114.3 257.7 137.2 257.7C160 257.7 183 263.3 205.8 266.2C228.7 269 251.3 269 274.2 270.5C297 272 320 275 342.8 272.5C365.7 270 388.3 262 411.2 257.8C434 253.7 457 253.3 480 256.8C503 260.3 526 267.7 548.8 271.2C571.7 274.7 594.3 274.3 617.2 270.8C640 267.3 663 260.7 685.8 260.2C708.7 259.7 731.3 265.3 754.2 267.8C777 270.3 800 269.7 822.8 269.2C845.7 268.7 868.3 268.3 891.2 267.3C914 266.3 937 264.7 948.5 263.8L960 263L960 301L948.5 301C937 301 914 301 891.2 301C868.3 301 845.7 301 822.8 301C800 301 777 301 754.2 301C731.3 301 708.7 301 685.8 301C663 301 640 301 617.2 301C594.3 301 571.7 301 548.8 301C526 301 503 301 480 301C457 301 434 301 411.2 301C388.3 301 365.7 301 342.8 301C320 301 297 301 274.2 301C251.3 301 228.7 301 205.8 301C183 301 160 301 137.2 301C114.3 301 91.7 301 68.8 301C46 301 23 301 11.5 301L0 301Z" fill="#0000ff"></path></svg>